<?xml version="1.0" encoding="UTF-8" standalone="no"?>
<!DOCTYPE svg PUBLIC "-//W3C//DTD SVG 1.1//EN"
 "http://www.w3.org/Graphics/SVG/1.1/DTD/svg11.dtd">
<!-- Generated by graphviz version 9.0.0 (20230911.1827)
 -->
<!-- Pages: 1 -->
<svg width="2207pt" height="754pt"
 viewBox="0.00 0.00 2206.97 754.25" xmlns="http://www.w3.org/2000/svg" xmlns:xlink="http://www.w3.org/1999/xlink">
<g id="graph0" class="graph" transform="scale(1 1) rotate(0) translate(4 750.25)">
<polygon fill="white" stroke="none" points="-4,4 -4,-750.25 2202.97,-750.25 2202.97,4 -4,4"/>
<!-- &#45;5078050819551259768 -->
<g id="node1" class="node">
<title>&#45;5078050819551259768</title>
<polygon fill="#dfdfff" stroke="black" points="378.22,-555 271.47,-555 271.47,-519 378.22,-519 378.22,-555"/>
<text text-anchor="middle" x="324.84" y="-532.73" font-family="Times New Roman,serif" font-size="12.00">begin editing (5004)</text>
</g>
<!-- &#45;8334614152021171701 -->
<g id="node3" class="node">
<title>&#45;8334614152021171701</title>
<polygon fill="#e0e0ff" stroke="black" points="509.72,-415 432.22,-415 432.22,-379 509.72,-379 509.72,-415"/>
<text text-anchor="middle" x="470.97" y="-392.73" font-family="Times New Roman,serif" font-size="12.00">check (4742)</text>
</g>
<!-- &#45;5078050819551259768&#45;&gt;&#45;8334614152021171701 -->
<g id="edge1" class="edge">
<title>&#45;5078050819551259768&#45;&gt;&#45;8334614152021171701</title>
<path fill="none" stroke="black" stroke-width="1.11" d="M344.68,-518.7C369.72,-494.38 414.11,-451.26 442.77,-423.42"/>
<polygon fill="black" stroke="black" stroke-width="1.11" points="445.18,-425.95 449.92,-416.48 440.31,-420.93 445.18,-425.95"/>
<text text-anchor="middle" x="405.22" y="-469.85" font-family="Times New Roman,serif" font-size="12.00">436</text>
</g>
<!-- 7219751908299301255 -->
<g id="node9" class="node">
<title>7219751908299301255</title>
<polygon fill="#9b9bff" stroke="black" points="794.47,-263 683.22,-263 683.22,-227 794.47,-227 794.47,-263"/>
<text text-anchor="middle" x="738.84" y="-240.72" font-family="Times New Roman,serif" font-size="12.00">finish editing (15738)</text>
</g>
<!-- &#45;5078050819551259768&#45;&gt;7219751908299301255 -->
<g id="edge2" class="edge">
<title>&#45;5078050819551259768&#45;&gt;7219751908299301255</title>
<path fill="none" stroke="black" stroke-width="1.04" d="M334.59,-518.76C359.03,-469.34 432.54,-330.83 527.72,-245.75 573.75,-204.6 604.23,-216.43 665.22,-226 667.39,-226.34 669.59,-226.72 671.81,-227.13"/>
<polygon fill="black" stroke="black" stroke-width="1.04" points="670.93,-230.52 681.43,-229.09 672.33,-223.66 670.93,-230.52"/>
<text text-anchor="middle" x="536.72" y="-248.85" font-family="Times New Roman,serif" font-size="12.00">166</text>
</g>
<!-- &#45;6038625498915028760 -->
<g id="node11" class="node">
<title>&#45;6038625498915028760</title>
<polygon fill="#eaeaff" stroke="black" points="976.22,-594 854.47,-594 854.47,-558 976.22,-558 976.22,-594"/>
<text text-anchor="middle" x="915.34" y="-571.73" font-family="Times New Roman,serif" font-size="12.00">insert document (3287)</text>
</g>
<!-- &#45;5078050819551259768&#45;&gt;&#45;6038625498915028760 -->
<g id="edge3" class="edge">
<title>&#45;5078050819551259768&#45;&gt;&#45;6038625498915028760</title>
<path fill="none" stroke="black" stroke-width="1.26" d="M349.86,-555.45C377.33,-574.67 424.4,-602 469.97,-602 469.97,-602 469.97,-602 739.84,-602 773.79,-602 811.06,-597.13 842.4,-591.6"/>
<polygon fill="black" stroke="black" stroke-width="1.26" points="843.02,-595.04 852.23,-589.8 841.76,-588.16 843.02,-595.04"/>
<text text-anchor="middle" x="596.47" y="-604.85" font-family="Times New Roman,serif" font-size="12.00">1055</text>
</g>
<!-- 2070984674601689100 -->
<g id="node13" class="node">
<title>2070984674601689100</title>
<polygon fill="#b4b4ff" stroke="black" points="1206.97,-472 1130.22,-472 1130.22,-436 1206.97,-436 1206.97,-472"/>
<text text-anchor="middle" x="1168.59" y="-449.73" font-family="Times New Roman,serif" font-size="12.00">save (11786)</text>
</g>
<!-- &#45;5078050819551259768&#45;&gt;2070984674601689100 -->
<g id="edge4" class="edge">
<title>&#45;5078050819551259768&#45;&gt;2070984674601689100</title>
<path fill="none" stroke="black" stroke-width="1.09" d="M378.67,-526.67C405.84,-522.21 439.56,-518 469.97,-518 469.97,-518 469.97,-518 739.84,-518 878.51,-518 1039.7,-484.7 1118.77,-466.14"/>
<polygon fill="black" stroke="black" stroke-width="1.09" points="1119.3,-469.61 1128.22,-463.89 1117.68,-462.8 1119.3,-469.61"/>
<text text-anchor="middle" x="656.22" y="-520.85" font-family="Times New Roman,serif" font-size="12.00">364</text>
</g>
<!-- &#45;3843055514141337355 -->
<g id="node14" class="node">
<title>&#45;3843055514141337355</title>
<polygon fill="#d5d5ff" stroke="black" points="1411.22,-132 1260.97,-132 1260.97,-96 1411.22,-96 1411.22,-132"/>
<text text-anchor="middle" x="1336.09" y="-109.72" font-family="Times New Roman,serif" font-size="12.00">start auto finish editing (6464)</text>
</g>
<!-- &#45;5078050819551259768&#45;&gt;&#45;3843055514141337355 -->
<g id="edge5" class="edge">
<title>&#45;5078050819551259768&#45;&gt;&#45;3843055514141337355</title>
<path fill="none" stroke="black" stroke-width="1.74" d="M326.72,-518.52C331.7,-424.09 360.17,0 469.97,0 469.97,0 469.97,0 1169.59,0 1230.24,0 1284.84,-52.57 1313.64,-86.31"/>
<polygon fill="black" stroke="black" stroke-width="1.74" points="1310.64,-88.18 1319.71,-93.66 1316.04,-83.72 1310.64,-88.18"/>
<text text-anchor="middle" x="738.84" y="-2.85" font-family="Times New Roman,serif" font-size="12.00">2983</text>
</g>
<!-- &#45;6370529575172793265 -->
<g id="node2" class="node">
<title>&#45;6370529575172793265</title>
<polygon fill="#ffffff" stroke="black" points="1112.22,-265 994.22,-265 994.22,-229 1112.22,-229 1112.22,-265"/>
<text text-anchor="middle" x="1053.22" y="-242.72" font-family="Times New Roman,serif" font-size="12.00">change department (3)</text>
</g>
<!-- @@endnode -->
<g id="node16" class="node">
<title>@@endnode</title>
<ellipse fill="none" stroke="black" cx="1336.09" cy="-246" rx="31.64" ry="31.64"/>
<ellipse fill="none" stroke="black" cx="1336.09" cy="-246" rx="35.64" ry="35.64"/>
<text text-anchor="start" x="1326.34" y="-233.97" font-family="Times New Roman,serif" font-size="32.00">■</text>
</g>
<!-- &#45;6370529575172793265&#45;&gt;@@endnode -->
<g id="edge44" class="edge">
<title>&#45;6370529575172793265&#45;&gt;@@endnode</title>
<path fill="none" stroke="black" d="M1112.47,-249.06C1149.78,-250.09 1199.23,-250.95 1242.97,-250 1257.87,-249.68 1274.12,-249.06 1288.76,-248.4"/>
<polygon fill="black" stroke="black" points="1288.77,-251.91 1298.6,-247.95 1288.44,-244.92 1288.77,-251.91"/>
<text text-anchor="middle" x="1168.59" y="-253.85" font-family="Times New Roman,serif" font-size="12.00">3</text>
</g>
<!-- &#45;8334614152021171701&#45;&gt;&#45;8334614152021171701 -->
<g id="edge6" class="edge">
<title>&#45;8334614152021171701&#45;&gt;&#45;8334614152021171701</title>
<path fill="none" stroke="black" stroke-width="1.13" d="M459.07,-415.15C457.24,-424.54 461.21,-433 470.97,-433 476.31,-433 479.91,-430.47 481.78,-426.64"/>
<polygon fill="black" stroke="black" stroke-width="1.13" points="485.25,-427.14 482.7,-416.86 478.28,-426.48 485.25,-427.14"/>
<text text-anchor="middle" x="470.97" y="-435.85" font-family="Times New Roman,serif" font-size="12.00">525</text>
</g>
<!-- &#45;2284404325681773111 -->
<g id="node7" class="node">
<title>&#45;2284404325681773111</title>
<polygon fill="#fefeff" stroke="black" points="629.22,-269 563.72,-269 563.72,-233 629.22,-233 629.22,-269"/>
<text text-anchor="middle" x="596.47" y="-246.72" font-family="Times New Roman,serif" font-size="12.00">discard (4)</text>
</g>
<!-- &#45;8334614152021171701&#45;&gt;&#45;2284404325681773111 -->
<g id="edge7" class="edge">
<title>&#45;8334614152021171701&#45;&gt;&#45;2284404325681773111</title>
<path fill="none" stroke="black" d="M475.88,-378.53C482.33,-352.43 497.58,-304.83 527.72,-276.75 534.8,-270.15 543.74,-265.2 552.78,-261.49"/>
<polygon fill="black" stroke="black" points="553.7,-264.88 561.92,-258.2 551.32,-258.3 553.7,-264.88"/>
<text text-anchor="middle" x="536.72" y="-278.85" font-family="Times New Roman,serif" font-size="12.00">3</text>
</g>
<!-- &#45;8334614152021171701&#45;&gt;7219751908299301255 -->
<g id="edge8" class="edge">
<title>&#45;8334614152021171701&#45;&gt;7219751908299301255</title>
<path fill="none" stroke="black" stroke-width="1.79" d="M488.07,-378.75C498.72,-367.23 513.32,-352.42 527.72,-341 570.51,-307.05 627.25,-282.05 670.97,-266.09"/>
<polygon fill="black" stroke="black" stroke-width="1.79" points="672.15,-269.39 680.39,-262.74 669.8,-262.8 672.15,-269.39"/>
<text text-anchor="middle" x="596.47" y="-317.85" font-family="Times New Roman,serif" font-size="12.00">3184</text>
</g>
<!-- &#45;8334614152021171701&#45;&gt;&#45;6038625498915028760 -->
<g id="edge9" class="edge">
<title>&#45;8334614152021171701&#45;&gt;&#45;6038625498915028760</title>
<path fill="none" stroke="black" stroke-width="1.08" d="M485.84,-415.33C496.09,-427.57 511.1,-443.01 527.72,-452 582.71,-481.75 605.26,-464.03 665.22,-481.75 734.21,-502.14 811.36,-532.56 861.27,-553.29"/>
<polygon fill="black" stroke="black" stroke-width="1.08" points="859.72,-556.43 870.3,-557.06 862.42,-549.97 859.72,-556.43"/>
<text text-anchor="middle" x="656.22" y="-483.85" font-family="Times New Roman,serif" font-size="12.00">305</text>
</g>
<!-- &#45;7269741676381239443 -->
<g id="node12" class="node">
<title>&#45;7269741676381239443</title>
<polygon fill="#fefeff" stroke="black" points="1392.84,-604 1279.34,-604 1279.34,-568 1392.84,-568 1392.84,-604"/>
<text text-anchor="middle" x="1336.09" y="-581.73" font-family="Times New Roman,serif" font-size="12.00">remove document (4)</text>
</g>
<!-- &#45;8334614152021171701&#45;&gt;&#45;7269741676381239443 -->
<g id="edge10" class="edge">
<title>&#45;8334614152021171701&#45;&gt;&#45;7269741676381239443</title>
<path fill="none" stroke="black" d="M473.22,-415.4C477.3,-459.45 494.35,-570.9 563.72,-620 787.69,-778.55 1146.7,-661.79 1281.57,-608.64"/>
<polygon fill="black" stroke="black" points="1282.63,-611.99 1290.63,-605.03 1280.04,-605.49 1282.63,-611.99"/>
<text text-anchor="middle" x="824.47" y="-701.85" font-family="Times New Roman,serif" font-size="12.00">1</text>
</g>
<!-- &#45;8334614152021171701&#45;&gt;2070984674601689100 -->
<g id="edge11" class="edge">
<title>&#45;8334614152021171701&#45;&gt;2070984674601689100</title>
<path fill="none" stroke="black" stroke-width="1.12" d="M510.17,-407.55C516.01,-408.89 522,-410.1 527.72,-411 746.09,-445.47 1010.65,-452.34 1118.38,-453.68"/>
<polygon fill="black" stroke="black" stroke-width="1.12" points="1118.09,-457.18 1128.13,-453.79 1118.17,-450.18 1118.09,-457.18"/>
<text text-anchor="middle" x="738.84" y="-441.85" font-family="Times New Roman,serif" font-size="12.00">484</text>
</g>
<!-- &#45;8334614152021171701&#45;&gt;&#45;3843055514141337355 -->
<g id="edge12" class="edge">
<title>&#45;8334614152021171701&#45;&gt;&#45;3843055514141337355</title>
<path fill="none" stroke="black" stroke-width="1.06" d="M476.9,-378.59C484.79,-351.18 502.02,-298.73 527.72,-260 554.52,-219.61 635.47,-143.04 683.22,-118 869.77,-20.15 1129.66,-62.48 1257.62,-92.87"/>
<polygon fill="black" stroke="black" stroke-width="1.06" points="1256.74,-96.25 1267.28,-95.2 1258.38,-89.45 1256.74,-96.25"/>
<text text-anchor="middle" x="824.47" y="-74.85" font-family="Times New Roman,serif" font-size="12.00">240</text>
</g>
<!-- &#45;8495191781104977622 -->
<g id="node4" class="node">
<title>&#45;8495191781104977622</title>
<polygon fill="#d5d5ff" stroke="black" points="1991.72,-136 1859.47,-136 1859.47,-100 1991.72,-100 1991.72,-136"/>
<text text-anchor="middle" x="1925.59" y="-113.72" font-family="Times New Roman,serif" font-size="12.00">check consistency (6464)</text>
</g>
<!-- 199208525237684982 -->
<g id="node8" class="node">
<title>199208525237684982</title>
<polygon fill="#d5d5ff" stroke="black" points="2198.97,-159 2051.72,-159 2051.72,-123 2198.97,-123 2198.97,-159"/>
<text text-anchor="middle" x="2125.34" y="-136.72" font-family="Times New Roman,serif" font-size="12.00">end auto finish editing (6464)</text>
</g>
<!-- &#45;8495191781104977622&#45;&gt;199208525237684982 -->
<g id="edge13" class="edge">
<title>&#45;8495191781104977622&#45;&gt;199208525237684982</title>
<path fill="none" stroke="black" stroke-width="2.6" d="M1992.17,-125.63C2006.86,-127.34 2022.67,-129.17 2038.06,-130.96"/>
<polygon fill="black" stroke="black" stroke-width="2.6" points="2037.2,-134.39 2047.53,-132.07 2038.01,-127.43 2037.2,-134.39"/>
<text text-anchor="middle" x="2021.72" y="-133.85" font-family="Times New Roman,serif" font-size="12.00">6464</text>
</g>
<!-- 1858760887482304019 -->
<g id="node5" class="node">
<title>1858760887482304019</title>
<polygon fill="#d5d5ff" stroke="black" points="1625.97,-135 1471.22,-135 1471.22,-99 1625.97,-99 1625.97,-135"/>
<text text-anchor="middle" x="1548.59" y="-112.72" font-family="Times New Roman,serif" font-size="12.00">check mandatory fields (6464)</text>
</g>
<!-- 7709780883482333037 -->
<g id="node6" class="node">
<title>7709780883482333037</title>
<polygon fill="#d5d5ff" stroke="black" points="1799.47,-136 1685.97,-136 1685.97,-100 1799.47,-100 1799.47,-136"/>
<text text-anchor="middle" x="1742.72" y="-113.72" font-family="Times New Roman,serif" font-size="12.00">check spelling (6464)</text>
</g>
<!-- 1858760887482304019&#45;&gt;7709780883482333037 -->
<g id="edge14" class="edge">
<title>1858760887482304019&#45;&gt;7709780883482333037</title>
<path fill="none" stroke="black" stroke-width="2.6" d="M1626.35,-117.4C1641.32,-117.48 1656.95,-117.56 1671.68,-117.64"/>
<polygon fill="black" stroke="black" stroke-width="2.6" points="1671.54,-121.13 1681.56,-117.69 1671.58,-114.13 1671.54,-121.13"/>
<text text-anchor="middle" x="1655.97" y="-120.85" font-family="Times New Roman,serif" font-size="12.00">6464</text>
</g>
<!-- 7709780883482333037&#45;&gt;&#45;8495191781104977622 -->
<g id="edge15" class="edge">
<title>7709780883482333037&#45;&gt;&#45;8495191781104977622</title>
<path fill="none" stroke="black" stroke-width="2.6" d="M1799.96,-118C1814.33,-118 1830.05,-118 1845.34,-118"/>
<polygon fill="black" stroke="black" stroke-width="2.6" points="1845.27,-121.5 1855.27,-118 1845.27,-114.5 1845.27,-121.5"/>
<text text-anchor="middle" x="1829.47" y="-120.85" font-family="Times New Roman,serif" font-size="12.00">6464</text>
</g>
<!-- &#45;2284404325681773111&#45;&gt;7219751908299301255 -->
<g id="edge16" class="edge">
<title>&#45;2284404325681773111&#45;&gt;7219751908299301255</title>
<path fill="none" stroke="black" d="M629.67,-249.62C642.25,-249.09 657.16,-248.45 671.82,-247.82"/>
<polygon fill="black" stroke="black" points="671.59,-251.34 681.43,-247.41 671.29,-244.34 671.59,-251.34"/>
<text text-anchor="middle" x="656.22" y="-251.85" font-family="Times New Roman,serif" font-size="12.00">1</text>
</g>
<!-- &#45;2284404325681773111&#45;&gt;2070984674601689100 -->
<g id="edge17" class="edge">
<title>&#45;2284404325681773111&#45;&gt;2070984674601689100</title>
<path fill="none" stroke="black" d="M622.18,-269.32C638.71,-280.79 661.36,-295.04 683.22,-304 864.18,-378.19 939.59,-310.08 1112.22,-402 1124.25,-408.41 1135.59,-418.12 1144.84,-427.42"/>
<polygon fill="black" stroke="black" points="1142.25,-429.78 1151.67,-434.64 1147.34,-424.97 1142.25,-429.78"/>
<text text-anchor="middle" x="824.47" y="-343.85" font-family="Times New Roman,serif" font-size="12.00">2</text>
</g>
<!-- &#45;2284404325681773111&#45;&gt;@@endnode -->
<g id="edge45" class="edge">
<title>&#45;2284404325681773111&#45;&gt;@@endnode</title>
<path fill="none" stroke="black" d="M619.31,-232.53C661.45,-198.27 758.31,-125.95 854.47,-99.75 965.05,-69.62 1002.98,-73.31 1112.22,-108 1184.8,-131.05 1257.73,-182.93 1299.53,-216.11"/>
<polygon fill="black" stroke="black" points="1297.3,-218.8 1307.29,-222.34 1301.69,-213.35 1297.3,-218.8"/>
<text text-anchor="middle" x="915.34" y="-102.85" font-family="Times New Roman,serif" font-size="12.00">1</text>
</g>
<!-- 199208525237684982&#45;&gt;7219751908299301255 -->
<g id="edge18" class="edge">
<title>199208525237684982&#45;&gt;7219751908299301255</title>
<path fill="none" stroke="black" stroke-width="2.6" d="M2051.33,-153.58C2014.11,-158.95 1968.07,-164 1926.59,-164 914.34,-164 914.34,-164 914.34,-164 861.46,-164 807.24,-194.98 773.57,-218.63"/>
<polygon fill="black" stroke="black" stroke-width="2.6" points="771.77,-215.6 765.74,-224.31 775.89,-221.27 771.77,-215.6"/>
<text text-anchor="middle" x="1441.22" y="-166.85" font-family="Times New Roman,serif" font-size="12.00">6464</text>
</g>
<!-- 7219751908299301255&#45;&gt;&#45;6370529575172793265 -->
<g id="edge19" class="edge">
<title>7219751908299301255&#45;&gt;&#45;6370529575172793265</title>
<path fill="none" stroke="black" d="M794.61,-245.35C846.83,-245.69 925.7,-246.19 982.41,-246.55"/>
<polygon fill="black" stroke="black" points="982.26,-250.05 992.28,-246.62 982.3,-243.05 982.26,-250.05"/>
<text text-anchor="middle" x="824.47" y="-248.85" font-family="Times New Roman,serif" font-size="12.00">3</text>
</g>
<!-- 7219751908299301255&#45;&gt;&#45;8334614152021171701 -->
<g id="edge20" class="edge">
<title>7219751908299301255&#45;&gt;&#45;8334614152021171701</title>
<path fill="none" stroke="black" stroke-width="1.05" d="M718.74,-263.43C698,-282.7 663.28,-312.87 629.22,-333 594.83,-353.32 552.78,-370.06 520.82,-381.32"/>
<polygon fill="black" stroke="black" stroke-width="1.05" points="519.77,-377.98 511.46,-384.55 522.06,-384.59 519.77,-377.98"/>
<text text-anchor="middle" x="596.47" y="-366.85" font-family="Times New Roman,serif" font-size="12.00">190</text>
</g>
<!-- 7219751908299301255&#45;&gt;&#45;2284404325681773111 -->
<g id="edge21" class="edge">
<title>7219751908299301255&#45;&gt;&#45;2284404325681773111</title>
<path fill="none" stroke="black" d="M683.1,-230.2C671.24,-228.72 658.78,-228.49 647.22,-230.75 644.93,-231.2 642.61,-231.75 640.3,-232.39"/>
<polygon fill="black" stroke="black" points="639.44,-228.98 631,-235.38 641.59,-235.65 639.44,-228.98"/>
<text text-anchor="middle" x="656.22" y="-233.85" font-family="Times New Roman,serif" font-size="12.00">1</text>
</g>
<!-- 7219751908299301255&#45;&gt;7219751908299301255 -->
<g id="edge22" class="edge">
<title>7219751908299301255&#45;&gt;7219751908299301255</title>
<path fill="none" stroke="black" stroke-width="1.2" d="M723.9,-263.15C721.6,-272.54 726.58,-281 738.84,-281 745.55,-281 750.08,-278.47 752.43,-274.64"/>
<polygon fill="black" stroke="black" stroke-width="1.2" points="755.88,-275.3 753.58,-264.96 748.93,-274.48 755.88,-275.3"/>
<text text-anchor="middle" x="738.84" y="-283.85" font-family="Times New Roman,serif" font-size="12.00">809</text>
</g>
<!-- 7219751908299301255&#45;&gt;&#45;6038625498915028760 -->
<g id="edge23" class="edge">
<title>7219751908299301255&#45;&gt;&#45;6038625498915028760</title>
<path fill="none" stroke="black" stroke-width="1.39" d="M748.55,-263.1C761.94,-290.82 788.56,-345.36 812.47,-391 841.76,-446.93 877.74,-511.31 898.15,-547.48"/>
<polygon fill="black" stroke="black" stroke-width="1.39" points="894.96,-548.94 902.93,-555.92 901.05,-545.49 894.96,-548.94"/>
<text text-anchor="middle" x="824.47" y="-433.85" font-family="Times New Roman,serif" font-size="12.00">1587</text>
</g>
<!-- 7219751908299301255&#45;&gt;2070984674601689100 -->
<g id="edge24" class="edge">
<title>7219751908299301255&#45;&gt;2070984674601689100</title>
<path fill="none" stroke="black" stroke-width="2.32" d="M794.87,-259.8C800.8,-261.27 806.75,-262.7 812.47,-264 944.79,-294.08 1006.91,-236.43 1112.22,-322 1143.02,-347.03 1156.94,-392.2 1163.06,-422.65"/>
<polygon fill="black" stroke="black" stroke-width="2.32" points="1159.6,-423.17 1164.8,-432.41 1166.49,-421.95 1159.6,-423.17"/>
<text text-anchor="middle" x="915.34" y="-275.85" font-family="Times New Roman,serif" font-size="12.00">5331</text>
</g>
<!-- 7219751908299301255&#45;&gt;&#45;3843055514141337355 -->
<g id="edge25" class="edge">
<title>7219751908299301255&#45;&gt;&#45;3843055514141337355</title>
<path fill="none" stroke="black" stroke-width="1.7" d="M748.04,-226.54C759.1,-204.08 781.1,-167.06 812.47,-150 885.34,-110.36 1119.74,-108.94 1248.46,-111.39"/>
<polygon fill="black" stroke="black" stroke-width="1.7" points="1248.31,-114.89 1258.38,-111.59 1248.46,-107.89 1248.31,-114.89"/>
<text text-anchor="middle" x="1053.22" y="-118.85" font-family="Times New Roman,serif" font-size="12.00">2834</text>
</g>
<!-- 7219751908299301255&#45;&gt;@@endnode -->
<g id="edge42" class="edge">
<title>7219751908299301255&#45;&gt;@@endnode</title>
<path fill="none" stroke="black" d="M794.68,-232.52C867.26,-217.54 999.23,-195.63 1112.22,-205.75 1174.36,-211.32 1245.1,-225.45 1289.9,-235.39"/>
<polygon fill="black" stroke="black" points="1288.99,-238.77 1299.51,-237.55 1290.52,-231.94 1288.99,-238.77"/>
<text text-anchor="middle" x="1053.22" y="-208.85" font-family="Times New Roman,serif" font-size="12.00">4983</text>
</g>
<!-- &#45;3832810192748759697 -->
<g id="node10" class="node">
<title>&#45;3832810192748759697</title>
<polygon fill="#dfdfff" stroke="black" points="211.47,-715 126.47,-715 126.47,-679 211.47,-679 211.47,-715"/>
<text text-anchor="middle" x="168.97" y="-692.73" font-family="Times New Roman,serif" font-size="12.00">initialize (5004)</text>
</g>
<!-- &#45;3832810192748759697&#45;&gt;&#45;5078050819551259768 -->
<g id="edge26" class="edge">
<title>&#45;3832810192748759697&#45;&gt;&#45;5078050819551259768</title>
<path fill="none" stroke="black" stroke-width="2.22" d="M187.62,-678.65C214.52,-650.68 265.95,-597.2 297.35,-564.55"/>
<polygon fill="black" stroke="black" stroke-width="2.22" points="299.66,-567.2 304.07,-557.56 294.61,-562.35 299.66,-567.2"/>
<text text-anchor="middle" x="241.47" y="-633.85" font-family="Times New Roman,serif" font-size="12.00">4939</text>
</g>
<!-- &#45;3832810192748759697&#45;&gt;&#45;6038625498915028760 -->
<g id="edge27" class="edge">
<title>&#45;3832810192748759697&#45;&gt;&#45;6038625498915028760</title>
<path fill="none" stroke="black" stroke-width="1.02" d="M211.84,-711.84C242.46,-721.38 285.21,-732 323.84,-732 323.84,-732 323.84,-732 739.84,-732 786.85,-732 800.31,-719.03 836.47,-689 864.69,-665.56 887.14,-629.43 900.55,-604.36"/>
<polygon fill="black" stroke="black" stroke-width="1.02" points="903.53,-606.21 905.02,-595.72 897.31,-602.99 903.53,-606.21"/>
<text text-anchor="middle" x="536.72" y="-734.85" font-family="Times New Roman,serif" font-size="12.00">65</text>
</g>
<!-- &#45;6038625498915028760&#45;&gt;&#45;5078050819551259768 -->
<g id="edge28" class="edge">
<title>&#45;6038625498915028760&#45;&gt;&#45;5078050819551259768</title>
<path fill="none" stroke="black" d="M904.25,-594.16C891.39,-615.54 867.1,-650.48 836.47,-669 798.86,-691.74 783.79,-690 739.84,-690 469.97,-690 469.97,-690 469.97,-690 402.52,-690 357.33,-610.24 337.43,-565.9"/>
<polygon fill="black" stroke="black" points="340.69,-564.63 333.51,-556.85 334.27,-567.41 340.69,-564.63"/>
<text text-anchor="middle" x="596.47" y="-692.85" font-family="Times New Roman,serif" font-size="12.00">3</text>
</g>
<!-- &#45;6038625498915028760&#45;&gt;&#45;6038625498915028760 -->
<g id="edge29" class="edge">
<title>&#45;6038625498915028760&#45;&gt;&#45;6038625498915028760</title>
<path fill="none" stroke="black" d="M898.9,-594.15C896.37,-603.54 901.85,-612 915.34,-612 922.93,-612 927.98,-609.32 930.5,-605.31"/>
<polygon fill="black" stroke="black" points="933.95,-605.99 931.61,-595.66 926.99,-605.19 933.95,-605.99"/>
<text text-anchor="middle" x="915.34" y="-614.85" font-family="Times New Roman,serif" font-size="12.00">4</text>
</g>
<!-- &#45;6038625498915028760&#45;&gt;&#45;7269741676381239443 -->
<g id="edge30" class="edge">
<title>&#45;6038625498915028760&#45;&gt;&#45;7269741676381239443</title>
<path fill="none" stroke="black" d="M976.45,-592.17C982.42,-593.32 988.41,-594.3 994.22,-595 1088.73,-606.36 1199,-599.9 1267.94,-593.52"/>
<polygon fill="black" stroke="black" points="1267.93,-597.04 1277.56,-592.61 1267.27,-590.07 1267.93,-597.04"/>
<text text-anchor="middle" x="1168.59" y="-603.85" font-family="Times New Roman,serif" font-size="12.00">1</text>
</g>
<!-- &#45;6038625498915028760&#45;&gt;2070984674601689100 -->
<g id="edge31" class="edge">
<title>&#45;6038625498915028760&#45;&gt;2070984674601689100</title>
<path fill="none" stroke="black" stroke-width="1.81" d="M976.36,-577.67C1025.6,-577.91 1090.61,-575.31 1112.22,-561 1138.51,-543.6 1153.03,-509.59 1160.54,-484.57"/>
<polygon fill="black" stroke="black" stroke-width="1.81" points="1163.87,-485.65 1163.13,-475.09 1157.12,-483.81 1163.87,-485.65"/>
<text text-anchor="middle" x="1053.22" y="-579.85" font-family="Times New Roman,serif" font-size="12.00">3279</text>
</g>
<!-- &#45;7269741676381239443&#45;&gt;2070984674601689100 -->
<g id="edge32" class="edge">
<title>&#45;7269741676381239443&#45;&gt;2070984674601689100</title>
<path fill="none" stroke="black" d="M1312.01,-567.59C1283.16,-544.58 1233.63,-505.08 1201.25,-479.25"/>
<polygon fill="black" stroke="black" points="1203.79,-476.8 1193.79,-473.3 1199.42,-482.27 1203.79,-476.8"/>
<text text-anchor="middle" x="1233.97" y="-514.85" font-family="Times New Roman,serif" font-size="12.00">4</text>
</g>
<!-- 2070984674601689100&#45;&gt;&#45;5078050819551259768 -->
<g id="edge33" class="edge">
<title>2070984674601689100&#45;&gt;&#45;5078050819551259768</title>
<path fill="none" stroke="black" stroke-width="1.02" d="M1146.3,-472.38C1136.52,-479.89 1124.4,-487.99 1112.22,-493 1017.83,-531.86 759.29,-556 657.22,-556 469.97,-556 469.97,-556 469.97,-556 443.6,-556 414.74,-552.83 389.82,-549.09"/>
<polygon fill="black" stroke="black" stroke-width="1.02" points="390.61,-545.67 380.19,-547.57 389.52,-552.58 390.61,-545.67"/>
<text text-anchor="middle" x="656.22" y="-558.85" font-family="Times New Roman,serif" font-size="12.00">62</text>
</g>
<!-- 2070984674601689100&#45;&gt;&#45;8334614152021171701 -->
<g id="edge34" class="edge">
<title>2070984674601689100&#45;&gt;&#45;8334614152021171701</title>
<path fill="none" stroke="black" stroke-width="1.89" d="M1129.79,-448.34C1123.91,-447.51 1117.91,-446.71 1112.22,-446 971.31,-428.46 936.05,-423.61 794.47,-412.75 698.46,-405.39 586.08,-400.81 522.54,-398.6"/>
<polygon fill="black" stroke="black" stroke-width="1.89" points="522.72,-395.11 512.6,-398.26 522.48,-402.1 522.72,-395.11"/>
<text text-anchor="middle" x="738.84" y="-414.85" font-family="Times New Roman,serif" font-size="12.00">3591</text>
</g>
<!-- 2070984674601689100&#45;&gt;7219751908299301255 -->
<g id="edge35" class="edge">
<title>2070984674601689100&#45;&gt;7219751908299301255</title>
<path fill="none" stroke="black" stroke-width="2.27" d="M1161.04,-435.62C1152.79,-415.13 1136.68,-382.45 1112.22,-364 1001.76,-280.69 941.9,-328.89 812.47,-280 804.02,-276.81 795.22,-273.01 786.78,-269.1"/>
<polygon fill="black" stroke="black" stroke-width="2.27" points="788.39,-265.99 777.85,-264.84 785.37,-272.3 788.39,-265.99"/>
<text text-anchor="middle" x="915.34" y="-311.85" font-family="Times New Roman,serif" font-size="12.00">5114</text>
</g>
<!-- 2070984674601689100&#45;&gt;&#45;6038625498915028760 -->
<g id="edge36" class="edge">
<title>2070984674601689100&#45;&gt;&#45;6038625498915028760</title>
<path fill="none" stroke="black" stroke-width="1.07" d="M1158.22,-472.42C1148.87,-488.77 1132.95,-511.87 1112.22,-524 1066.39,-550.82 1045.24,-528.05 994.22,-542.75 984.57,-545.53 974.53,-549.19 964.99,-553.07"/>
<polygon fill="black" stroke="black" stroke-width="1.07" points="963.82,-549.76 955.97,-556.88 966.54,-556.21 963.82,-549.76"/>
<text text-anchor="middle" x="1053.22" y="-544.85" font-family="Times New Roman,serif" font-size="12.00">271</text>
</g>
<!-- 2070984674601689100&#45;&gt;&#45;7269741676381239443 -->
<g id="edge37" class="edge">
<title>2070984674601689100&#45;&gt;&#45;7269741676381239443</title>
<path fill="none" stroke="black" d="M1207.14,-464.26C1219.2,-468.56 1232.21,-474.32 1242.97,-481.75 1273.05,-502.52 1299.77,-535.18 1316.58,-558.4"/>
<polygon fill="black" stroke="black" points="1313.66,-560.33 1322.29,-566.48 1319.38,-556.29 1313.66,-560.33"/>
<text text-anchor="middle" x="1233.97" y="-483.85" font-family="Times New Roman,serif" font-size="12.00">2</text>
</g>
<!-- 2070984674601689100&#45;&gt;2070984674601689100 -->
<g id="edge38" class="edge">
<title>2070984674601689100&#45;&gt;2070984674601689100</title>
<path fill="none" stroke="black" stroke-width="1.57" d="M1156.77,-472.15C1154.95,-481.54 1158.89,-490 1168.59,-490 1173.6,-490 1177.07,-487.75 1179.01,-484.28"/>
<polygon fill="black" stroke="black" stroke-width="1.57" points="1182.47,-484.86 1180.14,-474.52 1175.51,-484.05 1182.47,-484.86"/>
<text text-anchor="middle" x="1168.59" y="-492.85" font-family="Times New Roman,serif" font-size="12.00">2322</text>
</g>
<!-- 2070984674601689100&#45;&gt;&#45;3843055514141337355 -->
<g id="edge39" class="edge">
<title>2070984674601689100&#45;&gt;&#45;3843055514141337355</title>
<path fill="none" stroke="black" stroke-width="1.1" d="M1173.83,-435.55C1184.24,-392.39 1213.71,-282.38 1260.97,-201 1273.87,-178.79 1292.67,-156.8 1308.11,-140.48"/>
<polygon fill="black" stroke="black" stroke-width="1.1" points="1310.24,-143.32 1314.67,-133.69 1305.21,-138.45 1310.24,-143.32"/>
<text text-anchor="middle" x="1233.97" y="-275.85" font-family="Times New Roman,serif" font-size="12.00">407</text>
</g>
<!-- 2070984674601689100&#45;&gt;@@endnode -->
<g id="edge43" class="edge">
<title>2070984674601689100&#45;&gt;@@endnode</title>
<path fill="none" stroke="black" d="M1184.28,-435.54C1211.59,-401.22 1270.63,-327.01 1306.2,-282.31"/>
<polygon fill="black" stroke="black" points="1308.77,-284.7 1312.26,-274.7 1303.3,-280.34 1308.77,-284.7"/>
<text text-anchor="middle" x="1233.97" y="-382.85" font-family="Times New Roman,serif" font-size="12.00">17</text>
</g>
<!-- &#45;3843055514141337355&#45;&gt;1858760887482304019 -->
<g id="edge40" class="edge">
<title>&#45;3843055514141337355&#45;&gt;1858760887482304019</title>
<path fill="none" stroke="black" stroke-width="2.6" d="M1411.6,-115.06C1426.36,-115.27 1442.01,-115.5 1457.23,-115.71"/>
<polygon fill="black" stroke="black" stroke-width="2.6" points="1457.06,-119.21 1467.11,-115.85 1457.16,-112.21 1457.06,-119.21"/>
<text text-anchor="middle" x="1441.22" y="-118.85" font-family="Times New Roman,serif" font-size="12.00">6464</text>
</g>
<!-- @@startnode -->
<g id="node15" class="node">
<title>@@startnode</title>
<ellipse fill="none" stroke="black" cx="33.23" cy="-697" rx="33.23" ry="33.23"/>
<text text-anchor="start" x="22.73" y="-684.2" font-family="Times New Roman,serif" font-size="34.00">●</text>
</g>
<!-- @@startnode&#45;&gt;&#45;3832810192748759697 -->
<g id="edge41" class="edge">
<title>@@startnode&#45;&gt;&#45;3832810192748759697</title>
<path fill="none" stroke="black" d="M66.95,-697C81.26,-697 98.43,-697 114.51,-697"/>
<polygon fill="black" stroke="black" points="114.46,-700.5 124.46,-697 114.46,-693.5 114.46,-700.5"/>
<text text-anchor="middle" x="96.47" y="-699.85" font-family="Times New Roman,serif" font-size="12.00">5004</text>
</g>
</g>
</svg>
