<?xml version="1.0" encoding="UTF-8" standalone="no"?>
<!DOCTYPE svg PUBLIC "-//W3C//DTD SVG 1.1//EN"
 "http://www.w3.org/Graphics/SVG/1.1/DTD/svg11.dtd">
<!-- Generated by graphviz version 9.0.0 (20230911.1827)
 -->
<!-- Pages: 1 -->
<svg width="1270pt" height="79pt"
 viewBox="0.00 0.00 1269.75 79.29" xmlns="http://www.w3.org/2000/svg" xmlns:xlink="http://www.w3.org/1999/xlink">
<g id="graph0" class="graph" transform="scale(1 1) rotate(0) translate(4 75.29)">
<polygon fill="white" stroke="none" points="-4,4 -4,-75.29 1265.75,-75.29 1265.75,4 -4,4"/>
<!-- &#45;8908456539708437223 -->
<g id="node1" class="node">
<title>&#45;8908456539708437223</title>
<polygon fill="#ffffff" stroke="black" points="905.22,-53.64 766.97,-53.64 766.97,-17.64 905.22,-17.64 905.22,-53.64"/>
<text text-anchor="middle" x="836.09" y="-31.37" font-family="Times New Roman,serif" font-size="12.00">check consistency (19194)</text>
</g>
<!-- 5741877918495565335 -->
<g id="node4" class="node">
<title>5741877918495565335</title>
<polygon fill="#ffffff" stroke="black" points="1124.47,-53.64 971.22,-53.64 971.22,-17.64 1124.47,-17.64 1124.47,-53.64"/>
<text text-anchor="middle" x="1047.84" y="-31.37" font-family="Times New Roman,serif" font-size="12.00">end auto finish editing (19194)</text>
</g>
<!-- &#45;8908456539708437223&#45;&gt;5741877918495565335 -->
<g id="edge1" class="edge">
<title>&#45;8908456539708437223&#45;&gt;5741877918495565335</title>
<path fill="none" stroke="black" d="M905.48,-35.64C922.73,-35.64 941.47,-35.64 959.51,-35.64"/>
<polygon fill="black" stroke="black" points="959.41,-39.14 969.41,-35.64 959.41,-32.14 959.41,-39.14"/>
<text text-anchor="middle" x="938.22" y="-38.49" font-family="Times New Roman,serif" font-size="12.00">19194</text>
</g>
<!-- &#45;2028106691860784899 -->
<g id="node2" class="node">
<title>&#45;2028106691860784899</title>
<polygon fill="#ffffff" stroke="black" points="515.47,-53.64 354.72,-53.64 354.72,-17.64 515.47,-17.64 515.47,-53.64"/>
<text text-anchor="middle" x="435.09" y="-31.37" font-family="Times New Roman,serif" font-size="12.00">check mandatory fields (19194)</text>
</g>
<!-- 2455805605801157360 -->
<g id="node3" class="node">
<title>2455805605801157360</title>
<polygon fill="#ffffff" stroke="black" points="700.97,-53.64 581.47,-53.64 581.47,-17.64 700.97,-17.64 700.97,-53.64"/>
<text text-anchor="middle" x="641.22" y="-31.37" font-family="Times New Roman,serif" font-size="12.00">check spelling (19194)</text>
</g>
<!-- &#45;2028106691860784899&#45;&gt;2455805605801157360 -->
<g id="edge2" class="edge">
<title>&#45;2028106691860784899&#45;&gt;2455805605801157360</title>
<path fill="none" stroke="black" d="M515.89,-35.64C533.68,-35.64 552.43,-35.64 569.81,-35.64"/>
<polygon fill="black" stroke="black" points="569.5,-39.14 579.5,-35.64 569.5,-32.14 569.5,-39.14"/>
<text text-anchor="middle" x="548.47" y="-38.49" font-family="Times New Roman,serif" font-size="12.00">19194</text>
</g>
<!-- 2455805605801157360&#45;&gt;&#45;8908456539708437223 -->
<g id="edge3" class="edge">
<title>2455805605801157360&#45;&gt;&#45;8908456539708437223</title>
<path fill="none" stroke="black" d="M701.4,-35.64C718.37,-35.64 737.17,-35.64 755.17,-35.64"/>
<polygon fill="black" stroke="black" points="755.05,-39.14 765.05,-35.64 755.05,-32.14 755.05,-39.14"/>
<text text-anchor="middle" x="733.97" y="-38.49" font-family="Times New Roman,serif" font-size="12.00">19194</text>
</g>
<!-- @@endnode -->
<g id="node7" class="node">
<title>@@endnode</title>
<ellipse fill="none" stroke="black" cx="1226.11" cy="-35.64" rx="31.64" ry="31.64"/>
<ellipse fill="none" stroke="black" cx="1226.11" cy="-35.64" rx="35.64" ry="35.64"/>
<text text-anchor="start" x="1216.36" y="-23.62" font-family="Times New Roman,serif" font-size="32.00">■</text>
</g>
<!-- 5741877918495565335&#45;&gt;@@endnode -->
<g id="edge6" class="edge">
<title>5741877918495565335&#45;&gt;@@endnode</title>
<path fill="none" stroke="black" d="M1124.88,-35.64C1143.17,-35.64 1162.17,-35.64 1178.65,-35.64"/>
<polygon fill="black" stroke="black" points="1178.65,-39.14 1188.65,-35.64 1178.65,-32.14 1178.65,-39.14"/>
<text text-anchor="middle" x="1157.47" y="-38.49" font-family="Times New Roman,serif" font-size="12.00">19194</text>
</g>
<!-- &#45;5829594120354302102 -->
<g id="node5" class="node">
<title>&#45;5829594120354302102</title>
<polygon fill="#ffffff" stroke="black" points="288.72,-53.64 132.47,-53.64 132.47,-17.64 288.72,-17.64 288.72,-53.64"/>
<text text-anchor="middle" x="210.59" y="-31.37" font-family="Times New Roman,serif" font-size="12.00">start auto finish editing (19194)</text>
</g>
<!-- &#45;5829594120354302102&#45;&gt;&#45;2028106691860784899 -->
<g id="edge4" class="edge">
<title>&#45;5829594120354302102&#45;&gt;&#45;2028106691860784899</title>
<path fill="none" stroke="black" d="M289.1,-35.64C306.47,-35.64 325.04,-35.64 342.91,-35.64"/>
<polygon fill="black" stroke="black" points="342.71,-39.14 352.71,-35.64 342.71,-32.14 342.71,-39.14"/>
<text text-anchor="middle" x="321.72" y="-38.49" font-family="Times New Roman,serif" font-size="12.00">19194</text>
</g>
<!-- @@startnode -->
<g id="node6" class="node">
<title>@@startnode</title>
<ellipse fill="none" stroke="black" cx="33.23" cy="-35.64" rx="33.23" ry="33.23"/>
<text text-anchor="start" x="22.73" y="-22.84" font-family="Times New Roman,serif" font-size="34.00">●</text>
</g>
<!-- @@startnode&#45;&gt;&#45;5829594120354302102 -->
<g id="edge5" class="edge">
<title>@@startnode&#45;&gt;&#45;5829594120354302102</title>
<path fill="none" stroke="black" d="M66.81,-35.64C82.21,-35.64 101.42,-35.64 120.71,-35.64"/>
<polygon fill="black" stroke="black" points="120.54,-39.14 130.54,-35.64 120.54,-32.14 120.54,-39.14"/>
<text text-anchor="middle" x="99.47" y="-38.49" font-family="Times New Roman,serif" font-size="12.00">19194</text>
</g>
</g>
</svg>
